<?xml version="1.0" encoding="UTF-8"?>
<svg version="1.1" xmlns="http://www.w3.org/2000/svg" width="122" height="130">
<path d="M0 0 C40.26 0 80.52 0 122 0 C122 42.9 122 85.8 122 130 C81.74 130 41.48 130 0 130 C0 87.1 0 44.2 0 0 Z " fill="#FDFEFE" transform="translate(0,0)"/>
<path d="M0 0 C13.2 0 26.4 0 40 0 C40 9.9 40 19.8 40 30 C49.9 30 59.8 30 70 30 C70 43.2 70 56.4 70 70 C60.1 70 50.2 70 40 70 C40 79.9 40 89.8 40 100 C26.8 100 13.6 100 0 100 C0 90.1 0 80.2 0 70 C-9.9 70 -19.8 70 -30 70 C-30 56.8 -30 43.6 -30 30 C-20.1 30 -10.2 30 0 30 C0 20.1 0 10.2 0 0 Z " fill="#179DE9" transform="translate(39,18)"/>
<path d="M0 0 C13.2 0 26.4 0 40 0 C40 9.9 40 19.8 40 30 C26.8 30 13.6 30 0 30 C0 20.1 0 10.2 0 0 Z " fill="#1F2B6D" transform="translate(39,88)"/>
<path d="M0 0 C13.2 0 26.4 0 40 0 C40 9.9 40 19.8 40 30 C26.8 30 13.6 30 0 30 C0 20.1 0 10.2 0 0 Z " fill="#1F2B6D" transform="translate(39,18)"/>
<path d="M0 0 C0.33 0 0.66 0 1 0 C1.02505615 0.63502441 1.0501123 1.27004883 1.07592773 1.92431641 C1.19256789 4.82471542 1.31498393 7.72484349 1.4375 10.625 C1.47681641 11.62402344 1.51613281 12.62304688 1.55664062 13.65234375 C1.59853516 14.62558594 1.64042969 15.59882812 1.68359375 16.6015625 C1.72025146 17.49182129 1.75690918 18.38208008 1.79467773 19.29931641 C2.01663572 22.21881615 2.51865212 25.11191269 3 28 C14.55 28 26.1 28 38 28 C37.67 26.35 37.34 24.7 37 23 C37.33 22.34 37.66 21.68 38 21 C38.01610171 19.40321678 37.96535627 17.8054601 37.87890625 16.2109375 C37.80639648 14.79941406 37.80639648 14.79941406 37.73242188 13.359375 C37.64831055 11.88210937 37.64831055 11.88210937 37.5625 10.375 C37.48418945 8.88613281 37.48418945 8.88613281 37.40429688 7.3671875 C37.27441051 4.91115432 37.13943836 2.4555064 37 0 C37.99 0 38.98 0 40 0 C40 9.57 40 19.14 40 29 C26.8 29 13.6 29 0 29 C0 19.43 0 9.86 0 0 Z " fill="#242B5B" transform="translate(39,89)"/>
<path d="M0 0 C13.2 0 26.4 0 40 0 C40 9.57 40 19.14 40 29 C39.67 29 39.34 29 39 29 C38.67 20.09 38.34 11.18 38 2 C26.45 2 14.9 2 3 2 C2.17341661 8.47734457 2.17341661 8.47734457 1.68359375 14.9375 C1.64169922 15.76894531 1.59980469 16.60039063 1.55664062 17.45703125 C1.51732422 18.29621094 1.47800781 19.13539062 1.4375 20 C1.39431641 20.87011719 1.35113281 21.74023438 1.30664062 22.63671875 C1.20175782 24.75768219 1.10049925 26.87882433 1 29 C0.67 29 0.34 29 0 29 C0 19.43 0 9.86 0 0 Z " fill="#252B5A" transform="translate(39,18)"/>
</svg>
